<svg width="16" height="16" viewBox="0 0 16 16" fill="none" xmlns="http://www.w3.org/2000/svg">
<g clip-path="url(#clip0_1_2341)">
<path d="M15.5289 8.13266C15.5289 4.05425 12.2227 0.748047 8.14426 0.748047C4.06585 0.748047 0.759644 4.05425 0.759644 8.13266C0.759644 11.8185 3.46008 14.8736 6.99042 15.4275V10.2673H5.11541V8.13266H6.99042V6.50574C6.99042 4.65497 8.09291 3.63266 9.7797 3.63266C10.5874 3.63266 11.4327 3.77689 11.4327 3.77689V5.5942H10.5016C9.58426 5.5942 9.29811 6.16348 9.29811 6.74804V8.13266H11.3462L11.0188 10.2673H9.29811V15.4275C12.8285 14.8736 15.5289 11.8185 15.5289 8.13266Z" fill="black"/>
</g>
<defs>
<clipPath id="clip0_1_2341">
<rect width="16" height="16" fill="white"/>
</clipPath>
</defs>
</svg>
