<svg width="16" height="16" viewBox="0 0 16 16" fill="none" xmlns="http://www.w3.org/2000/svg">
<g clip-path="url(#clip0_1_2344)">
<path d="M8.61719 1.44062C10.7547 1.44062 11.0078 1.45 11.8484 1.4875C12.6297 1.52187 13.0516 1.65313 13.3328 1.7625C13.7047 1.90625 13.9734 2.08125 14.2516 2.35938C14.5328 2.64063 14.7047 2.90625 14.8484 3.27813C14.9578 3.55938 15.0891 3.98437 15.1234 4.7625C15.1609 5.60625 15.1703 5.85938 15.1703 7.99375C15.1703 10.1313 15.1609 10.3844 15.1234 11.225C15.0891 12.0063 14.9578 12.4281 14.8484 12.7094C14.7047 13.0813 14.5297 13.35 14.2516 13.6281C13.9703 13.9094 13.7047 14.0813 13.3328 14.225C13.0516 14.3344 12.6266 14.4656 11.8484 14.5C11.0047 14.5375 10.7516 14.5469 8.61719 14.5469C6.47969 14.5469 6.22656 14.5375 5.38594 14.5C4.60469 14.4656 4.18281 14.3344 3.90156 14.225C3.52969 14.0813 3.26094 13.9063 2.98281 13.6281C2.70156 13.3469 2.52969 13.0813 2.38594 12.7094C2.27656 12.4281 2.14531 12.0031 2.11094 11.225C2.07344 10.3813 2.06406 10.1281 2.06406 7.99375C2.06406 5.85625 2.07344 5.60312 2.11094 4.7625C2.14531 3.98125 2.27656 3.55938 2.38594 3.27813C2.52969 2.90625 2.70469 2.6375 2.98281 2.35938C3.26406 2.07813 3.52969 1.90625 3.90156 1.7625C4.18281 1.65313 4.60781 1.52187 5.38594 1.4875C6.22656 1.45 6.47969 1.44062 8.61719 1.44062ZM8.61719 0C6.44531 0 6.17344 0.009375 5.32031 0.046875C4.47031 0.084375 3.88594 0.221875 3.37969 0.41875C2.85156 0.625 2.40469 0.896875 1.96094 1.34375C1.51406 1.7875 1.24219 2.23438 1.03594 2.75938C0.839062 3.26875 0.701563 3.85 0.664062 4.7C0.626562 5.55625 0.617188 5.82813 0.617188 8C0.617188 10.1719 0.626562 10.4438 0.664062 11.2969C0.701563 12.1469 0.839062 12.7313 1.03594 13.2375C1.24219 13.7656 1.51406 14.2125 1.96094 14.6563C2.40469 15.1 2.85156 15.375 3.37656 15.5781C3.88594 15.775 4.46719 15.9125 5.31719 15.95C6.17031 15.9875 6.44219 15.9969 8.61406 15.9969C10.7859 15.9969 11.0578 15.9875 11.9109 15.95C12.7609 15.9125 13.3453 15.775 13.8516 15.5781C14.3766 15.375 14.8234 15.1 15.2672 14.6563C15.7109 14.2125 15.9859 13.7656 16.1891 13.2406C16.3859 12.7313 16.5234 12.15 16.5609 11.3C16.5984 10.4469 16.6078 10.175 16.6078 8.00313C16.6078 5.83125 16.5984 5.55938 16.5609 4.70625C16.5234 3.85625 16.3859 3.27188 16.1891 2.76563C15.9922 2.23438 15.7203 1.7875 15.2734 1.34375C14.8297 0.9 14.3828 0.625 13.8578 0.421875C13.3484 0.225 12.7672 0.0875 11.9172 0.05C11.0609 0.009375 10.7891 0 8.61719 0Z" fill="black"/>
<path d="M8.61719 3.89062C6.34844 3.89062 4.50781 5.73125 4.50781 8C4.50781 10.2688 6.34844 12.1094 8.61719 12.1094C10.8859 12.1094 12.7266 10.2688 12.7266 8C12.7266 5.73125 10.8859 3.89062 8.61719 3.89062ZM8.61719 10.6656C7.14531 10.6656 5.95156 9.47188 5.95156 8C5.95156 6.52813 7.14531 5.33438 8.61719 5.33438C10.0891 5.33438 11.2828 6.52813 11.2828 8C11.2828 9.47188 10.0891 10.6656 8.61719 10.6656Z" fill="black"/>
<path d="M13.8484 3.72793C13.8484 4.25918 13.4172 4.68731 12.8891 4.68731C12.3578 4.68731 11.9297 4.25606 11.9297 3.72793C11.9297 3.19668 12.3609 2.76855 12.8891 2.76855C13.4172 2.76855 13.8484 3.19981 13.8484 3.72793Z" fill="black"/>
</g>
<defs>
<clipPath id="clip0_1_2344">
<rect width="16" height="16" fill="white"/>
</clipPath>
</defs>
</svg>
