<svg width="16" height="16" viewBox="0 0 16 16" fill="none" xmlns="http://www.w3.org/2000/svg">
<g clip-path="url(#clip0_1_2338)">
<path d="M14.4038 0.666992H1.90569C1.30699 0.666992 0.822876 1.13965 0.822876 1.72402V14.2738C0.822876 14.8582 1.30699 15.3337 1.90569 15.3337H14.4038C15.0026 15.3337 15.4896 14.8582 15.4896 14.2766V1.72402C15.4896 1.13965 15.0026 0.666992 14.4038 0.666992ZM5.17417 13.1652H2.99709V6.16413H5.17417V13.1652ZM4.08564 5.21022C3.38668 5.21022 2.82236 4.6459 2.82236 3.94981C2.82236 3.25371 3.38668 2.68939 4.08564 2.68939C4.78173 2.68939 5.34605 3.25371 5.34605 3.94981C5.34605 4.64303 4.78173 5.21022 4.08564 5.21022ZM13.3211 13.1652H11.1468V9.76205C11.1468 8.95137 11.1325 7.90579 10.0153 7.90579C8.88381 7.90579 8.71193 8.79095 8.71193 9.70475V13.1652H6.54059V6.16413H8.626V7.1209H8.65465C8.94397 6.5709 9.65439 5.98939 10.7114 5.98939C12.9143 5.98939 13.3211 7.43887 13.3211 9.32377V13.1652Z" fill="black"/>
</g>
<defs>
<clipPath id="clip0_1_2338">
<rect width="16" height="16" fill="white"/>
</clipPath>
</defs>
</svg>
