<svg width="16" height="16" viewBox="0 0 16 16" fill="none" xmlns="http://www.w3.org/2000/svg">
<g clip-path="url(#clip0_1_2349)">
<path d="M5.65063 14.8931C11.6869 14.8931 14.9894 9.89087 14.9894 5.55431C14.9894 5.41368 14.9862 5.26993 14.98 5.12931C15.6224 4.66471 16.1769 4.08924 16.6172 3.42993C16.0189 3.69613 15.3836 3.86999 14.7331 3.94556C15.418 3.53501 15.9309 2.89005 16.1766 2.13024C15.5322 2.5121 14.8276 2.78147 14.0928 2.92681C13.5977 2.40077 12.9432 2.05248 12.2303 1.93577C11.5174 1.81906 10.786 1.94043 10.149 2.28113C9.51205 2.62183 9.00505 3.16287 8.70642 3.82061C8.40778 4.47834 8.33414 5.21614 8.49687 5.91993C7.19218 5.85446 5.91581 5.51554 4.75051 4.92513C3.58521 4.33473 2.55698 3.50602 1.7325 2.49274C1.31345 3.21523 1.18523 4.07016 1.37387 4.88379C1.56252 5.69742 2.0539 6.4087 2.74813 6.87306C2.22694 6.85651 1.71717 6.71619 1.26094 6.46368V6.50431C1.26047 7.2625 1.52259 7.99746 2.00273 8.58425C2.48287 9.17104 3.1514 9.57344 3.89469 9.72306C3.41189 9.85515 2.90518 9.8744 2.41375 9.77931C2.62349 10.4314 3.03157 11.0017 3.58103 11.4106C4.1305 11.8196 4.79393 12.0468 5.47875 12.0606C4.31614 12.9738 2.87997 13.4692 1.40156 13.4668C1.13938 13.4664 0.877454 13.4503 0.617188 13.4187C2.11909 14.3822 3.86621 14.894 5.65063 14.8931Z" fill="black"/>
</g>
<defs>
<clipPath id="clip0_1_2349">
<rect width="16" height="16" fill="white"/>
</clipPath>
</defs>
</svg>
